<svg width="24" height="24" viewBox="0 0 24 24" fill="none" xmlns="http://www.w3.org/2000/svg">
<mask id="path-1-inside-1_1_1873" fill="white">
<path d="M16 19H20C20.2652 19 20.5196 18.8946 20.7071 18.7071C20.8946 18.5196 21 18.2652 21 18V17C21 16.2044 20.6839 15.4413 20.1213 14.8787C19.5587 14.3161 18.7956 14 18 14H16M13.764 10C14.1691 10.4529 14.7021 10.7721 15.2925 10.9154C15.8829 11.0587 16.503 11.0193 17.0705 10.8025C17.6381 10.5857 18.1265 10.2017 18.471 9.70126C18.8156 9.20083 19.0001 8.60758 19.0001 8C19.0001 7.39243 18.8156 6.79917 18.471 6.29874C18.1265 5.7983 17.6381 5.41428 17.0705 5.19748C16.503 4.98069 15.8829 4.94134 15.2925 5.08464C14.7021 5.22794 14.1691 5.54714 13.764 6M3 18V17C3 16.2044 3.31607 15.4413 3.87868 14.8787C4.44129 14.3161 5.20435 14 6 14H10C10.7956 14 11.5587 14.3161 12.1213 14.8787C12.6839 15.4413 13 16.2044 13 17V18C13 18.2652 12.8946 18.5196 12.7071 18.7071C12.5196 18.8946 12.2652 19 12 19H4C3.73478 19 3.48043 18.8946 3.29289 18.7071C3.10536 18.5196 3 18.2652 3 18ZM11 8C11 8.79565 10.6839 9.55871 10.1213 10.1213C9.55871 10.6839 8.79565 11 8 11C7.20435 11 6.44129 10.6839 5.87868 10.1213C5.31607 9.55871 5 8.79565 5 8C5 7.20435 5.31607 6.44129 5.87868 5.87868C6.44129 5.31607 7.20435 5 8 5C8.79565 5 9.55871 5.31607 10.1213 5.87868C10.6839 6.44129 11 7.20435 11 8Z"/>
</mask>
<path d="M16 18C15.4477 18 15 18.4477 15 19C15 19.5523 15.4477 20 16 20V19V18ZM21 17H22H21ZM16 13C15.4477 13 15 13.4477 15 14C15 14.5523 15.4477 15 16 15V14V13ZM14.5094 9.33333C14.1412 8.92168 13.509 8.88645 13.0973 9.25464C12.6857 9.62283 12.6505 10.255 13.0186 10.6667L13.764 10L14.5094 9.33333ZM13.0186 5.33333C12.6505 5.74498 12.6857 6.37717 13.0973 6.74536C13.509 7.11355 14.1412 7.07832 14.5094 6.66667L13.764 6L13.0186 5.33333ZM3 18H2H3ZM3 17H2H3ZM6 14V13V14ZM11 8H12H11ZM8 5V4V5ZM16 19V20H20V19V18H16V19ZM20 19V20C20.5304 20 21.0391 19.7893 21.4142 19.4142L20.7071 18.7071L20 18V18V19ZM20.7071 18.7071L21.4142 19.4142C21.7893 19.0391 22 18.5304 22 18H21H20V18L20.7071 18.7071ZM21 18H22V17H21H20V18H21ZM21 17H22C22 15.9391 21.5786 14.9217 20.8284 14.1716L20.1213 14.8787L19.4142 15.5858C19.7893 15.9609 20 16.4696 20 17H21ZM20.1213 14.8787L20.8284 14.1716C20.0783 13.4214 19.0609 13 18 13V14V15C18.5304 15 19.0391 15.2107 19.4142 15.5858L20.1213 14.8787ZM18 14V13H16V14V15H18V14ZM13.764 10L13.0186 10.6667C13.5587 11.2705 14.2694 11.6961 15.0566 11.8871L15.2925 10.9154L15.5283 9.94357C15.1347 9.84804 14.7794 9.63524 14.5094 9.33333L13.764 10ZM15.2925 10.9154L15.0566 11.8871C15.8439 12.0782 16.6706 12.0258 17.4274 11.7367L17.0705 10.8025L16.7137 9.86835C16.3353 10.0129 15.922 10.0391 15.5283 9.94357L15.2925 10.9154ZM17.0705 10.8025L17.4274 11.7367C18.1841 11.4476 18.8353 10.9356 19.2947 10.2684L18.471 9.70126L17.6474 9.13418C17.4177 9.4678 17.0921 9.72381 16.7137 9.86835L17.0705 10.8025ZM18.471 9.70126L19.2947 10.2684C19.7541 9.60111 20.0001 8.8101 20.0001 8H19.0001H18.0001C18.0001 8.40505 17.8771 8.80055 17.6474 9.13418L18.471 9.70126ZM19.0001 8H20.0001C20.0001 7.1899 19.7541 6.39889 19.2947 5.73165L18.471 6.29874L17.6474 6.86582C17.8771 7.19945 18.0001 7.59495 18.0001 8H19.0001ZM18.471 6.29874L19.2947 5.73165C18.8353 5.0644 18.1841 4.55237 17.4274 4.26331L17.0705 5.19748L16.7137 6.13166C17.0921 6.27619 17.4177 6.5322 17.6474 6.86582L18.471 6.29874ZM17.0705 5.19748L17.4274 4.26331C16.6706 3.97425 15.8439 3.92178 15.0566 4.11285L15.2925 5.08464L15.5283 6.05643C15.922 5.96089 16.3353 5.98713 16.7137 6.13166L17.0705 5.19748ZM15.2925 5.08464L15.0566 4.11285C14.2694 4.30392 13.5587 4.72952 13.0186 5.33333L13.764 6L14.5094 6.66667C14.7794 6.36476 15.1347 6.15196 15.5283 6.05643L15.2925 5.08464ZM3 18H4V17H3H2V18H3ZM3 17H4C4 16.4696 4.21071 15.9609 4.58579 15.5858L3.87868 14.8787L3.17157 14.1716C2.42143 14.9217 2 15.9391 2 17H3ZM3.87868 14.8787L4.58579 15.5858C4.96086 15.2107 5.46957 15 6 15V14V13C4.93913 13 3.92172 13.4214 3.17157 14.1716L3.87868 14.8787ZM6 14V15H10V14V13H6V14ZM10 14V15C10.5304 15 11.0391 15.2107 11.4142 15.5858L12.1213 14.8787L12.8284 14.1716C12.0783 13.4214 11.0609 13 10 13V14ZM12.1213 14.8787L11.4142 15.5858C11.7893 15.9609 12 16.4696 12 17H13H14C14 15.9391 13.5786 14.9217 12.8284 14.1716L12.1213 14.8787ZM13 17H12V18H13H14V17H13ZM13 18H12V18L12.7071 18.7071L13.4142 19.4142C13.7893 19.0391 14 18.5304 14 18H13ZM12.7071 18.7071L12 18V18V19V20C12.5304 20 13.0391 19.7893 13.4142 19.4142L12.7071 18.7071ZM12 19V18H4V19V20H12V19ZM4 19V18L4 18L3.29289 18.7071L2.58579 19.4142C2.96086 19.7893 3.46957 20 4 20V19ZM3.29289 18.7071L4 18L4 18H3H2C2 18.5304 2.21071 19.0391 2.58579 19.4142L3.29289 18.7071ZM11 8H10C10 8.53043 9.78929 9.03914 9.41421 9.41421L10.1213 10.1213L10.8284 10.8284C11.5786 10.0783 12 9.06087 12 8H11ZM10.1213 10.1213L9.41421 9.41421C9.03914 9.78929 8.53043 10 8 10V11V12C9.06087 12 10.0783 11.5786 10.8284 10.8284L10.1213 10.1213ZM8 11V10C7.46957 10 6.96086 9.78929 6.58579 9.41421L5.87868 10.1213L5.17157 10.8284C5.92172 11.5786 6.93913 12 8 12V11ZM5.87868 10.1213L6.58579 9.41421C6.21071 9.03914 6 8.53043 6 8H5H4C4 9.06087 4.42143 10.0783 5.17157 10.8284L5.87868 10.1213ZM5 8H6C6 7.46957 6.21071 6.96086 6.58579 6.58579L5.87868 5.87868L5.17157 5.17157C4.42143 5.92172 4 6.93913 4 8H5ZM5.87868 5.87868L6.58579 6.58579C6.96086 6.21071 7.46957 6 8 6V5V4C6.93913 4 5.92172 4.42143 5.17157 5.17157L5.87868 5.87868ZM8 5V6C8.53043 6 9.03914 6.21071 9.41421 6.58579L10.1213 5.87868L10.8284 5.17157C10.0783 4.42143 9.06087 4 8 4V5ZM10.1213 5.87868L9.41421 6.58579C9.78929 6.96086 10 7.46957 10 8H11H12C12 6.93914 11.5786 5.92172 10.8284 5.17157L10.1213 5.87868Z" fill="#3C83F6" mask="url(#path-1-inside-1_1_1873)"/>
</svg>
