<svg width="48" height="48" viewBox="0 0 48 48" fill="none" xmlns="http://www.w3.org/2000/svg">
<path d="M20.27 42L19.546 36.216C18.9073 36.0227 18.2173 35.72 17.476 35.308C16.7333 34.8947 16.102 34.452 15.582 33.98L10.246 36.25L6.51599 29.75L11.128 26.272C11.068 25.912 11.0193 25.54 10.982 25.156C10.942 24.772 10.922 24.3993 10.922 24.038C10.922 23.702 10.942 23.3487 10.982 22.978C11.0193 22.6073 11.068 22.19 11.128 21.726L6.51599 18.252L10.246 11.828L15.542 14.06C16.1393 13.5627 16.786 13.114 17.482 12.714C18.1753 12.314 18.8507 12.0047 19.508 11.786L20.268 6H27.732L28.454 11.824C29.2207 12.0933 29.898 12.402 30.486 12.75C31.074 13.098 31.68 13.534 32.304 14.058L37.754 11.828L41.484 18.25L36.72 21.842C36.8293 22.2553 36.8907 22.6347 36.904 22.98C36.9173 23.3253 36.924 23.6653 36.924 24C36.924 24.3107 36.9107 24.638 36.884 24.982C36.8587 25.3273 36.8 25.7447 36.708 26.234L41.396 29.75L37.666 36.25L32.304 33.942C31.6813 34.466 31.0547 34.9147 30.424 35.288C29.7933 35.6613 29.1367 35.958 28.454 36.178L27.732 42H20.27ZM22 40H25.912L26.65 34.584C27.658 34.3173 28.5647 33.9513 29.37 33.486C30.178 33.0207 30.9993 32.3833 31.834 31.574L36.824 33.7L38.812 30.3L34.434 27.012C34.6007 26.4427 34.7113 25.9187 34.766 25.44C34.8193 24.9627 34.846 24.4827 34.846 24C34.846 23.4933 34.8193 23.0133 34.766 22.56C34.7127 22.1067 34.602 21.6087 34.434 21.066L38.888 17.7L36.9 14.3L31.796 16.44C31.1907 15.7747 30.3953 15.1513 29.41 14.57C28.4233 13.99 27.49 13.6053 26.61 13.416L26 8H22.012L21.388 13.378C20.38 13.5927 19.4533 13.9393 18.608 14.418C17.764 14.8953 16.924 15.552 16.088 16.388L11.1 14.3L9.11199 17.7L13.45 20.94C13.2833 21.388 13.1667 21.8747 13.1 22.4C13.0333 22.9253 13 23.472 13 24.04C13 24.5467 13.0333 25.05 13.1 25.55C13.1667 26.05 13.2707 26.5367 13.412 27.01L9.11199 30.3L11.1 33.7L16.05 31.6C16.8353 32.392 17.65 33.0273 18.494 33.506C19.3393 33.9847 20.2913 34.3573 21.35 34.624L22 40ZM23.946 29C25.3407 29 26.5227 28.5153 27.492 27.546C28.4613 26.5767 28.946 25.3947 28.946 24C28.946 22.6053 28.4613 21.4233 27.492 20.454C26.5227 19.4847 25.3407 19 23.946 19C22.5433 19 21.3593 19.4847 20.394 20.454C19.4287 21.4233 18.946 22.6053 18.946 24C18.946 25.3947 19.4287 26.5767 20.394 27.546C21.3593 28.5153 22.5433 29 23.946 29Z" fill="#3C83F6"/>
</svg>
