<svg width="32" height="32" viewBox="0 0 32 32" fill="none" xmlns="http://www.w3.org/2000/svg">
<path d="M26.6666 17.3333C26.6666 24 21.9999 27.3333 16.4533 29.2667C16.1628 29.3651 15.8473 29.3604 15.5599 29.2533C9.99992 27.3333 5.33325 24 5.33325 17.3333V8.00001C5.33325 7.64639 5.47373 7.30725 5.72378 7.0572C5.97383 6.80715 6.31296 6.66668 6.66659 6.66668C9.33325 6.66668 12.6666 5.06668 14.9866 3.04001C15.2691 2.79867 15.6284 2.66608 15.9999 2.66608C16.3714 2.66608 16.7308 2.79867 17.0133 3.04001C19.3466 5.08001 22.6666 6.66668 25.3333 6.66668C25.6869 6.66668 26.026 6.80715 26.2761 7.0572C26.5261 7.30725 26.6666 7.64639 26.6666 8.00001V17.3333Z" stroke="#3C83F6" stroke-width="2" stroke-linecap="round" stroke-linejoin="round"/>
</svg>
