<svg width="48" height="48" viewBox="0 0 48 48" fill="none" xmlns="http://www.w3.org/2000/svg">
<path d="M32 38H40C40.5304 38 41.0391 37.7893 41.4142 37.4142C41.7893 37.0391 42 36.5304 42 36V34C42 32.4087 41.3679 30.8826 40.2426 29.7574C39.1174 28.6321 37.5913 28 36 28H32M27.528 20C28.3381 20.9057 29.4041 21.5441 30.585 21.8307C31.7658 22.1173 33.0059 22.0386 34.1411 21.605C35.2762 21.1714 36.253 20.4034 36.9421 19.4025C37.6312 18.4017 38.0001 17.2152 38.0001 16C38.0001 14.7849 37.6312 13.5983 36.9421 12.5975C36.253 11.5966 35.2762 10.8286 34.1411 10.395C33.0059 9.96137 31.7658 9.88267 30.585 10.1693C29.4041 10.4559 28.3381 11.0943 27.528 12M6 36V34C6 32.4087 6.63214 30.8826 7.75736 29.7574C8.88258 28.6321 10.4087 28 12 28H20C21.5913 28 23.1174 28.6321 24.2426 29.7574C25.3679 30.8826 26 32.4087 26 34V36C26 36.5304 25.7893 37.0391 25.4142 37.4142C25.0391 37.7893 24.5304 38 24 38H8C7.46957 38 6.96086 37.7893 6.58579 37.4142C6.21071 37.0391 6 36.5304 6 36ZM22 16C22 17.5913 21.3679 19.1174 20.2426 20.2426C19.1174 21.3679 17.5913 22 16 22C14.4087 22 12.8826 21.3679 11.7574 20.2426C10.6321 19.1174 10 17.5913 10 16C10 14.4087 10.6321 12.8826 11.7574 11.7574C12.8826 10.6321 14.4087 10 16 10C17.5913 10 19.1174 10.6321 20.2426 11.7574C21.3679 12.8826 22 14.4087 22 16Z" stroke="#3C83F6" stroke-width="2" stroke-linecap="round"/>
</svg>
