<svg width="38" height="30" viewBox="0 0 38 30" fill="none" xmlns="http://www.w3.org/2000/svg">
<path d="M27 29H35C35.5304 29 36.0391 28.7893 36.4142 28.4142C36.7893 28.0391 37 27.5304 37 27V25C37 23.4087 36.3679 21.8826 35.2426 20.7574C34.1174 19.6321 32.5913 19 31 19H27M22.528 11C23.3381 11.9057 24.4041 12.5441 25.585 12.8307C26.7658 13.1173 28.0059 13.0386 29.1411 12.605C30.2762 12.1714 31.253 11.4034 31.9421 10.4025C32.6312 9.40166 33.0001 8.21515 33.0001 7C33.0001 5.78485 32.6312 4.59834 31.9421 3.59747C31.253 2.59661 30.2762 1.82856 29.1411 1.39497C28.0059 0.961375 26.7658 0.882673 25.585 1.16928C24.4041 1.45588 23.3381 2.09428 22.528 3M1 27V25C1 23.4087 1.63214 21.8826 2.75736 20.7574C3.88258 19.6321 5.4087 19 7 19H15C16.5913 19 18.1174 19.6321 19.2426 20.7574C20.3679 21.8826 21 23.4087 21 25V27C21 27.5304 20.7893 28.0391 20.4142 28.4142C20.0391 28.7893 19.5304 29 19 29H3C2.46957 29 1.96086 28.7893 1.58579 28.4142C1.21071 28.0391 1 27.5304 1 27ZM17 7C17 8.5913 16.3679 10.1174 15.2426 11.2426C14.1174 12.3679 12.5913 13 11 13C9.4087 13 7.88258 12.3679 6.75736 11.2426C5.63214 10.1174 5 8.5913 5 7C5 5.4087 5.63214 3.88258 6.75736 2.75736C7.88258 1.63214 9.4087 1 11 1C12.5913 1 14.1174 1.63214 15.2426 2.75736C16.3679 3.88258 17 5.4087 17 7Z" stroke="#94A3B8" stroke-width="2" stroke-linecap="round"/>
</svg>
