<svg width="38" height="30" viewBox="0 0 38 30" fill="none" xmlns="http://www.w3.org/2000/svg">
<path d="M3.41156 30C2.43904 30 1.62767 29.67 0.977445 29.01C0.327222 28.35 0.00140741 27.5257 0 26.5371V3.46286C0 2.47571 0.325815 1.65214 0.977445 0.992142C1.62907 0.332142 2.43974 0.00142857 3.40944 0H34.5906C35.5617 0 36.3723 0.330714 37.0226 0.992142C37.6728 1.65357 37.9986 2.47714 38 3.46286V26.5393C38 27.525 37.6742 28.3486 37.0226 29.01C36.3709 29.6714 35.5603 30.0014 34.5906 30H3.41156ZM19 15.2486L2.11111 4.03929V26.5393C2.11111 26.9236 2.23285 27.2393 2.47633 27.4864C2.71981 27.7336 3.03156 27.8571 3.41156 27.8571H34.5906C34.9692 27.8571 35.2802 27.7336 35.5237 27.4864C35.7671 27.2393 35.8889 26.9229 35.8889 26.5371V4.03714L19 15.2486ZM19 12.8571L35.2387 2.14286H2.76133L19 12.8571ZM2.11111 4.03929V2.14286V26.5393C2.11111 26.9236 2.23285 27.2393 2.47633 27.4864C2.71981 27.7336 3.03156 27.8571 3.41156 27.8571H2.11111V4.03929Z" fill="#3C83F6"/>
</svg>
